ISO-10303-21;
HEADER;
/* Generated by software containing ST-Developer
 * from STEP Tools, Inc. (www.steptools.com) 
 */

FILE_DESCRIPTION(
/* description */ (''),
/* implementation_level */ '2;1');

FILE_NAME(
/* name */ 'Bottom V1.step',
/* time_stamp */ '2026-01-09T19:11:10+05:30',
/* author */ (''),
/* organization */ (''),
/* preprocessor_version */ 'ST-DEVELOPER v20.1',
/* originating_system */ 'Autodesk Translation Framework v14.21.0.0',
/* authorisation */ '');

FILE_SCHEMA (('AUTOMOTIVE_DESIGN { 1 0 10303 214 3 1 1 }'));
ENDSEC;

DATA;
#10=MECHANICAL_DESIGN_GEOMETRIC_PRESENTATION_REPRESENTATION('',(#13),#923);
#11=SHAPE_REPRESENTATION_RELATIONSHIP('SRR','None',#930,#12);
#12=ADVANCED_BREP_SHAPE_REPRESENTATION('',(#14),#922);
#13=STYLED_ITEM('',(#939),#14);
#14=MANIFOLD_SOLID_BREP('Body1',#543);
#15=FACE_BOUND('',#78,.T.);
#16=FACE_BOUND('',#79,.T.);
#17=FACE_BOUND('',#80,.T.);
#18=FACE_BOUND('',#81,.T.);
#19=FACE_BOUND('',#88,.T.);
#20=FACE_BOUND('',#89,.T.);
#21=FACE_BOUND('',#90,.T.);
#22=FACE_BOUND('',#91,.T.);
#23=FACE_BOUND('',#94,.T.);
#24=FACE_BOUND('',#97,.T.);
#25=FACE_BOUND('',#113,.T.);
#26=FACE_BOUND('',#116,.T.);
#27=PLANE('',#560);
#28=PLANE('',#561);
#29=PLANE('',#571);
#30=PLANE('',#574);
#31=PLANE('',#577);
#32=PLANE('',#584);
#33=PLANE('',#588);
#34=PLANE('',#590);
#35=PLANE('',#591);
#36=PLANE('',#592);
#37=PLANE('',#593);
#38=PLANE('',#594);
#39=PLANE('',#595);
#40=PLANE('',#602);
#41=PLANE('',#603);
#42=PLANE('',#604);
#43=PLANE('',#607);
#44=PLANE('',#610);
#45=FACE_OUTER_BOUND('',#75,.T.);
#46=FACE_OUTER_BOUND('',#76,.T.);
#47=FACE_OUTER_BOUND('',#77,.T.);
#48=FACE_OUTER_BOUND('',#82,.T.);
#49=FACE_OUTER_BOUND('',#83,.T.);
#50=FACE_OUTER_BOUND('',#84,.T.);
#51=FACE_OUTER_BOUND('',#85,.T.);
#52=FACE_OUTER_BOUND('',#86,.T.);
#53=FACE_OUTER_BOUND('',#87,.T.);
#54=FACE_OUTER_BOUND('',#92,.T.);
#55=FACE_OUTER_BOUND('',#93,.T.);
#56=FACE_OUTER_BOUND('',#95,.T.);
#57=FACE_OUTER_BOUND('',#96,.T.);
#58=FACE_OUTER_BOUND('',#98,.T.);
#59=FACE_OUTER_BOUND('',#99,.T.);
#60=FACE_OUTER_BOUND('',#100,.T.);
#61=FACE_OUTER_BOUND('',#101,.T.);
#62=FACE_OUTER_BOUND('',#102,.T.);
#63=FACE_OUTER_BOUND('',#103,.T.);
#64=FACE_OUTER_BOUND('',#104,.T.);
#65=FACE_OUTER_BOUND('',#105,.T.);
#66=FACE_OUTER_BOUND('',#106,.T.);
#67=FACE_OUTER_BOUND('',#107,.T.);
#68=FACE_OUTER_BOUND('',#108,.T.);
#69=FACE_OUTER_BOUND('',#109,.T.);
#70=FACE_OUTER_BOUND('',#110,.T.);
#71=FACE_OUTER_BOUND('',#111,.T.);
#72=FACE_OUTER_BOUND('',#112,.T.);
#73=FACE_OUTER_BOUND('',#114,.T.);
#74=FACE_OUTER_BOUND('',#115,.T.);
#75=EDGE_LOOP('',(#357,#358,#359,#360));
#76=EDGE_LOOP('',(#361,#362,#363,#364,#365,#366,#367,#368));
#77=EDGE_LOOP('',(#369,#370,#371,#372,#373,#374,#375,#376,#377,#378,#379,
#380,#381,#382,#383,#384));
#78=EDGE_LOOP('',(#385));
#79=EDGE_LOOP('',(#386));
#80=EDGE_LOOP('',(#387));
#81=EDGE_LOOP('',(#388));
#82=EDGE_LOOP('',(#389,#390,#391,#392));
#83=EDGE_LOOP('',(#393,#394,#395,#396));
#84=EDGE_LOOP('',(#397,#398,#399,#400));
#85=EDGE_LOOP('',(#401,#402,#403,#404));
#86=EDGE_LOOP('',(#405,#406,#407,#408));
#87=EDGE_LOOP('',(#409,#410,#411,#412,#413,#414,#415,#416));
#88=EDGE_LOOP('',(#417));
#89=EDGE_LOOP('',(#418));
#90=EDGE_LOOP('',(#419));
#91=EDGE_LOOP('',(#420));
#92=EDGE_LOOP('',(#421,#422,#423,#424));
#93=EDGE_LOOP('',(#425));
#94=EDGE_LOOP('',(#426));
#95=EDGE_LOOP('',(#427,#428,#429,#430));
#96=EDGE_LOOP('',(#431));
#97=EDGE_LOOP('',(#432));
#98=EDGE_LOOP('',(#433,#434,#435,#436));
#99=EDGE_LOOP('',(#437,#438,#439,#440));
#100=EDGE_LOOP('',(#441,#442,#443,#444));
#101=EDGE_LOOP('',(#445,#446,#447,#448,#449,#450,#451,#452));
#102=EDGE_LOOP('',(#453,#454,#455,#456));
#103=EDGE_LOOP('',(#457,#458,#459,#460));
#104=EDGE_LOOP('',(#461,#462,#463,#464));
#105=EDGE_LOOP('',(#465,#466,#467,#468));
#106=EDGE_LOOP('',(#469,#470,#471,#472));
#107=EDGE_LOOP('',(#473,#474,#475,#476));
#108=EDGE_LOOP('',(#477,#478,#479,#480));
#109=EDGE_LOOP('',(#481,#482,#483,#484));
#110=EDGE_LOOP('',(#485,#486,#487,#488));
#111=EDGE_LOOP('',(#489,#490,#491,#492));
#112=EDGE_LOOP('',(#493));
#113=EDGE_LOOP('',(#494));
#114=EDGE_LOOP('',(#495,#496,#497,#498));
#115=EDGE_LOOP('',(#499));
#116=EDGE_LOOP('',(#500));
#117=ELLIPSE('',#559,5.00878851469416,5.);
#118=ELLIPSE('',#570,5.00878851469416,5.);
#119=ELLIPSE('',#573,5.00878851469416,5.);
#120=ELLIPSE('',#576,5.00878851469416,5.);
#121=ELLIPSE('',#578,3.0052731088165,3.);
#122=ELLIPSE('',#579,3.0052731088165,3.);
#123=ELLIPSE('',#580,3.0052731088165,3.);
#124=ELLIPSE('',#581,3.0052731088165,3.);
#125=LINE('',#775,#173);
#126=LINE('',#778,#174);
#127=LINE('',#781,#175);
#128=LINE('',#783,#176);
#129=LINE('',#785,#177);
#130=LINE('',#787,#178);
#131=LINE('',#789,#179);
#132=LINE('',#791,#180);
#133=LINE('',#792,#181);
#134=LINE('',#795,#182);
#135=LINE('',#799,#183);
#136=LINE('',#803,#184);
#137=LINE('',#806,#185);
#138=LINE('',#808,#186);
#139=LINE('',#810,#187);
#140=LINE('',#812,#188);
#141=LINE('',#814,#189);
#142=LINE('',#816,#190);
#143=LINE('',#817,#191);
#144=LINE('',#828,#192);
#145=LINE('',#832,#193);
#146=LINE('',#833,#194);
#147=LINE('',#836,#195);
#148=LINE('',#839,#196);
#149=LINE('',#841,#197);
#150=LINE('',#844,#198);
#151=LINE('',#847,#199);
#152=LINE('',#858,#200);
#153=LINE('',#865,#201);
#154=LINE('',#872,#202);
#155=LINE('',#873,#203);
#156=LINE('',#876,#204);
#157=LINE('',#877,#205);
#158=LINE('',#879,#206);
#159=LINE('',#882,#207);
#160=LINE('',#884,#208);
#161=LINE('',#885,#209);
#162=LINE('',#889,#210);
#163=LINE('',#890,#211);
#164=LINE('',#891,#212);
#165=LINE('',#893,#213);
#166=LINE('',#897,#214);
#167=LINE('',#901,#215);
#168=LINE('',#903,#216);
#169=LINE('',#905,#217);
#170=LINE('',#907,#218);
#171=LINE('',#912,#219);
#172=LINE('',#917,#220);
#173=VECTOR('',#617,10.);
#174=VECTOR('',#620,10.);
#175=VECTOR('',#623,10.);
#176=VECTOR('',#624,10.);
#177=VECTOR('',#625,10.);
#178=VECTOR('',#626,10.);
#179=VECTOR('',#627,10.);
#180=VECTOR('',#628,10.);
#181=VECTOR('',#629,10.);
#182=VECTOR('',#632,10.);
#183=VECTOR('',#635,10.);
#184=VECTOR('',#638,10.);
#185=VECTOR('',#641,10.);
#186=VECTOR('',#642,10.);
#187=VECTOR('',#643,10.);
#188=VECTOR('',#644,10.);
#189=VECTOR('',#645,10.);
#190=VECTOR('',#646,10.);
#191=VECTOR('',#647,10.);
#192=VECTOR('',#658,10.);
#193=VECTOR('',#663,10.);
#194=VECTOR('',#664,10.);
#195=VECTOR('',#667,10.);
#196=VECTOR('',#670,10.);
#197=VECTOR('',#673,10.);
#198=VECTOR('',#676,10.);
#199=VECTOR('',#681,10.);
#200=VECTOR('',#692,1.7);
#201=VECTOR('',#701,1.7);
#202=VECTOR('',#710,10.);
#203=VECTOR('',#711,10.);
#204=VECTOR('',#714,10.);
#205=VECTOR('',#715,10.);
#206=VECTOR('',#718,10.);
#207=VECTOR('',#721,10.);
#208=VECTOR('',#722,10.);
#209=VECTOR('',#723,10.);
#210=VECTOR('',#726,10.);
#211=VECTOR('',#727,10.);
#212=VECTOR('',#728,10.);
#213=VECTOR('',#731,10.);
#214=VECTOR('',#736,3.);
#215=VECTOR('',#741,3.);
#216=VECTOR('',#744,3.);
#217=VECTOR('',#747,3.);
#218=VECTOR('',#750,10.);
#219=VECTOR('',#757,1.7);
#220=VECTOR('',#764,1.7);
#221=CIRCLE('',#558,5.);
#222=CIRCLE('',#562,5.);
#223=CIRCLE('',#563,5.);
#224=CIRCLE('',#564,5.);
#225=CIRCLE('',#565,1.7);
#226=CIRCLE('',#566,1.7);
#227=CIRCLE('',#567,1.7);
#228=CIRCLE('',#568,1.7);
#229=CIRCLE('',#583,1.7);
#230=CIRCLE('',#585,3.);
#231=CIRCLE('',#587,1.7);
#232=CIRCLE('',#589,3.);
#233=CIRCLE('',#597,3.);
#234=CIRCLE('',#599,3.);
#235=CIRCLE('',#606,1.7);
#236=CIRCLE('',#609,1.7);
#237=VERTEX_POINT('',#771);
#238=VERTEX_POINT('',#772);
#239=VERTEX_POINT('',#774);
#240=VERTEX_POINT('',#776);
#241=VERTEX_POINT('',#780);
#242=VERTEX_POINT('',#782);
#243=VERTEX_POINT('',#784);
#244=VERTEX_POINT('',#786);
#245=VERTEX_POINT('',#788);
#246=VERTEX_POINT('',#790);
#247=VERTEX_POINT('',#794);
#248=VERTEX_POINT('',#796);
#249=VERTEX_POINT('',#798);
#250=VERTEX_POINT('',#800);
#251=VERTEX_POINT('',#802);
#252=VERTEX_POINT('',#805);
#253=VERTEX_POINT('',#807);
#254=VERTEX_POINT('',#809);
#255=VERTEX_POINT('',#811);
#256=VERTEX_POINT('',#813);
#257=VERTEX_POINT('',#815);
#258=VERTEX_POINT('',#818);
#259=VERTEX_POINT('',#820);
#260=VERTEX_POINT('',#822);
#261=VERTEX_POINT('',#824);
#262=VERTEX_POINT('',#827);
#263=VERTEX_POINT('',#831);
#264=VERTEX_POINT('',#835);
#265=VERTEX_POINT('',#837);
#266=VERTEX_POINT('',#843);
#267=VERTEX_POINT('',#848);
#268=VERTEX_POINT('',#850);
#269=VERTEX_POINT('',#852);
#270=VERTEX_POINT('',#854);
#271=VERTEX_POINT('',#857);
#272=VERTEX_POINT('',#861);
#273=VERTEX_POINT('',#864);
#274=VERTEX_POINT('',#868);
#275=VERTEX_POINT('',#871);
#276=VERTEX_POINT('',#875);
#277=VERTEX_POINT('',#881);
#278=VERTEX_POINT('',#883);
#279=VERTEX_POINT('',#887);
#280=VERTEX_POINT('',#888);
#281=VERTEX_POINT('',#895);
#282=VERTEX_POINT('',#899);
#283=VERTEX_POINT('',#911);
#284=VERTEX_POINT('',#916);
#285=EDGE_CURVE('',#237,#238,#221,.T.);
#286=EDGE_CURVE('',#238,#239,#125,.T.);
#287=EDGE_CURVE('',#239,#240,#117,.T.);
#288=EDGE_CURVE('',#240,#237,#126,.T.);
#289=EDGE_CURVE('',#241,#238,#127,.T.);
#290=EDGE_CURVE('',#241,#242,#128,.T.);
#291=EDGE_CURVE('',#242,#243,#129,.T.);
#292=EDGE_CURVE('',#243,#244,#130,.T.);
#293=EDGE_CURVE('',#245,#244,#131,.T.);
#294=EDGE_CURVE('',#246,#245,#132,.T.);
#295=EDGE_CURVE('',#239,#246,#133,.T.);
#296=EDGE_CURVE('',#237,#247,#134,.T.);
#297=EDGE_CURVE('',#248,#247,#222,.T.);
#298=EDGE_CURVE('',#248,#249,#135,.T.);
#299=EDGE_CURVE('',#250,#249,#223,.T.);
#300=EDGE_CURVE('',#250,#251,#136,.T.);
#301=EDGE_CURVE('',#245,#251,#224,.T.);
#302=EDGE_CURVE('',#244,#252,#137,.T.);
#303=EDGE_CURVE('',#252,#253,#138,.T.);
#304=EDGE_CURVE('',#253,#254,#139,.T.);
#305=EDGE_CURVE('',#254,#255,#140,.T.);
#306=EDGE_CURVE('',#255,#256,#141,.T.);
#307=EDGE_CURVE('',#256,#257,#142,.T.);
#308=EDGE_CURVE('',#257,#241,#143,.T.);
#309=EDGE_CURVE('',#258,#258,#225,.T.);
#310=EDGE_CURVE('',#259,#259,#226,.T.);
#311=EDGE_CURVE('',#260,#260,#227,.T.);
#312=EDGE_CURVE('',#261,#261,#228,.T.);
#313=EDGE_CURVE('',#251,#262,#144,.T.);
#314=EDGE_CURVE('',#262,#246,#118,.T.);
#315=EDGE_CURVE('',#263,#250,#145,.T.);
#316=EDGE_CURVE('',#263,#262,#146,.T.);
#317=EDGE_CURVE('',#247,#264,#147,.T.);
#318=EDGE_CURVE('',#264,#265,#119,.T.);
#319=EDGE_CURVE('',#265,#248,#148,.T.);
#320=EDGE_CURVE('',#240,#264,#149,.T.);
#321=EDGE_CURVE('',#249,#266,#150,.T.);
#322=EDGE_CURVE('',#266,#263,#120,.T.);
#323=EDGE_CURVE('',#265,#266,#151,.T.);
#324=EDGE_CURVE('',#267,#267,#121,.T.);
#325=EDGE_CURVE('',#268,#268,#122,.T.);
#326=EDGE_CURVE('',#269,#269,#123,.T.);
#327=EDGE_CURVE('',#270,#270,#124,.T.);
#328=EDGE_CURVE('',#261,#271,#152,.T.);
#329=EDGE_CURVE('',#271,#271,#229,.T.);
#330=EDGE_CURVE('',#272,#272,#230,.T.);
#331=EDGE_CURVE('',#260,#273,#153,.T.);
#332=EDGE_CURVE('',#273,#273,#231,.T.);
#333=EDGE_CURVE('',#274,#274,#232,.T.);
#334=EDGE_CURVE('',#243,#275,#154,.T.);
#335=EDGE_CURVE('',#252,#275,#155,.T.);
#336=EDGE_CURVE('',#276,#257,#156,.T.);
#337=EDGE_CURVE('',#276,#242,#157,.T.);
#338=EDGE_CURVE('',#275,#276,#158,.T.);
#339=EDGE_CURVE('',#277,#256,#159,.T.);
#340=EDGE_CURVE('',#277,#278,#160,.T.);
#341=EDGE_CURVE('',#278,#253,#161,.T.);
#342=EDGE_CURVE('',#279,#280,#162,.T.);
#343=EDGE_CURVE('',#278,#279,#163,.T.);
#344=EDGE_CURVE('',#280,#277,#164,.T.);
#345=EDGE_CURVE('',#279,#254,#165,.T.);
#346=EDGE_CURVE('',#281,#281,#233,.T.);
#347=EDGE_CURVE('',#281,#270,#166,.T.);
#348=EDGE_CURVE('',#282,#282,#234,.T.);
#349=EDGE_CURVE('',#282,#269,#167,.T.);
#350=EDGE_CURVE('',#272,#268,#168,.T.);
#351=EDGE_CURVE('',#274,#267,#169,.T.);
#352=EDGE_CURVE('',#280,#255,#170,.T.);
#353=EDGE_CURVE('',#258,#283,#171,.T.);
#354=EDGE_CURVE('',#283,#283,#235,.T.);
#355=EDGE_CURVE('',#259,#284,#172,.T.);
#356=EDGE_CURVE('',#284,#284,#236,.T.);
#357=ORIENTED_EDGE('',*,*,#285,.T.);
#358=ORIENTED_EDGE('',*,*,#286,.T.);
#359=ORIENTED_EDGE('',*,*,#287,.T.);
#360=ORIENTED_EDGE('',*,*,#288,.T.);
#361=ORIENTED_EDGE('',*,*,#286,.F.);
#362=ORIENTED_EDGE('',*,*,#289,.F.);
#363=ORIENTED_EDGE('',*,*,#290,.T.);
#364=ORIENTED_EDGE('',*,*,#291,.T.);
#365=ORIENTED_EDGE('',*,*,#292,.T.);
#366=ORIENTED_EDGE('',*,*,#293,.F.);
#367=ORIENTED_EDGE('',*,*,#294,.F.);
#368=ORIENTED_EDGE('',*,*,#295,.F.);
#369=ORIENTED_EDGE('',*,*,#285,.F.);
#370=ORIENTED_EDGE('',*,*,#296,.T.);
#371=ORIENTED_EDGE('',*,*,#297,.F.);
#372=ORIENTED_EDGE('',*,*,#298,.T.);
#373=ORIENTED_EDGE('',*,*,#299,.F.);
#374=ORIENTED_EDGE('',*,*,#300,.T.);
#375=ORIENTED_EDGE('',*,*,#301,.F.);
#376=ORIENTED_EDGE('',*,*,#293,.T.);
#377=ORIENTED_EDGE('',*,*,#302,.T.);
#378=ORIENTED_EDGE('',*,*,#303,.T.);
#379=ORIENTED_EDGE('',*,*,#304,.T.);
#380=ORIENTED_EDGE('',*,*,#305,.T.);
#381=ORIENTED_EDGE('',*,*,#306,.T.);
#382=ORIENTED_EDGE('',*,*,#307,.T.);
#383=ORIENTED_EDGE('',*,*,#308,.T.);
#384=ORIENTED_EDGE('',*,*,#289,.T.);
#385=ORIENTED_EDGE('',*,*,#309,.T.);
#386=ORIENTED_EDGE('',*,*,#310,.T.);
#387=ORIENTED_EDGE('',*,*,#311,.T.);
#388=ORIENTED_EDGE('',*,*,#312,.T.);
#389=ORIENTED_EDGE('',*,*,#301,.T.);
#390=ORIENTED_EDGE('',*,*,#313,.T.);
#391=ORIENTED_EDGE('',*,*,#314,.T.);
#392=ORIENTED_EDGE('',*,*,#294,.T.);
#393=ORIENTED_EDGE('',*,*,#313,.F.);
#394=ORIENTED_EDGE('',*,*,#300,.F.);
#395=ORIENTED_EDGE('',*,*,#315,.F.);
#396=ORIENTED_EDGE('',*,*,#316,.T.);
#397=ORIENTED_EDGE('',*,*,#297,.T.);
#398=ORIENTED_EDGE('',*,*,#317,.T.);
#399=ORIENTED_EDGE('',*,*,#318,.T.);
#400=ORIENTED_EDGE('',*,*,#319,.T.);
#401=ORIENTED_EDGE('',*,*,#288,.F.);
#402=ORIENTED_EDGE('',*,*,#320,.T.);
#403=ORIENTED_EDGE('',*,*,#317,.F.);
#404=ORIENTED_EDGE('',*,*,#296,.F.);
#405=ORIENTED_EDGE('',*,*,#299,.T.);
#406=ORIENTED_EDGE('',*,*,#321,.T.);
#407=ORIENTED_EDGE('',*,*,#322,.T.);
#408=ORIENTED_EDGE('',*,*,#315,.T.);
#409=ORIENTED_EDGE('',*,*,#287,.F.);
#410=ORIENTED_EDGE('',*,*,#295,.T.);
#411=ORIENTED_EDGE('',*,*,#314,.F.);
#412=ORIENTED_EDGE('',*,*,#316,.F.);
#413=ORIENTED_EDGE('',*,*,#322,.F.);
#414=ORIENTED_EDGE('',*,*,#323,.F.);
#415=ORIENTED_EDGE('',*,*,#318,.F.);
#416=ORIENTED_EDGE('',*,*,#320,.F.);
#417=ORIENTED_EDGE('',*,*,#324,.F.);
#418=ORIENTED_EDGE('',*,*,#325,.F.);
#419=ORIENTED_EDGE('',*,*,#326,.F.);
#420=ORIENTED_EDGE('',*,*,#327,.F.);
#421=ORIENTED_EDGE('',*,*,#312,.F.);
#422=ORIENTED_EDGE('',*,*,#328,.T.);
#423=ORIENTED_EDGE('',*,*,#329,.T.);
#424=ORIENTED_EDGE('',*,*,#328,.F.);
#425=ORIENTED_EDGE('',*,*,#330,.F.);
#426=ORIENTED_EDGE('',*,*,#329,.F.);
#427=ORIENTED_EDGE('',*,*,#311,.F.);
#428=ORIENTED_EDGE('',*,*,#331,.T.);
#429=ORIENTED_EDGE('',*,*,#332,.T.);
#430=ORIENTED_EDGE('',*,*,#331,.F.);
#431=ORIENTED_EDGE('',*,*,#333,.F.);
#432=ORIENTED_EDGE('',*,*,#332,.F.);
#433=ORIENTED_EDGE('',*,*,#302,.F.);
#434=ORIENTED_EDGE('',*,*,#292,.F.);
#435=ORIENTED_EDGE('',*,*,#334,.T.);
#436=ORIENTED_EDGE('',*,*,#335,.F.);
#437=ORIENTED_EDGE('',*,*,#308,.F.);
#438=ORIENTED_EDGE('',*,*,#336,.F.);
#439=ORIENTED_EDGE('',*,*,#337,.T.);
#440=ORIENTED_EDGE('',*,*,#290,.F.);
#441=ORIENTED_EDGE('',*,*,#338,.F.);
#442=ORIENTED_EDGE('',*,*,#334,.F.);
#443=ORIENTED_EDGE('',*,*,#291,.F.);
#444=ORIENTED_EDGE('',*,*,#337,.F.);
#445=ORIENTED_EDGE('',*,*,#335,.T.);
#446=ORIENTED_EDGE('',*,*,#338,.T.);
#447=ORIENTED_EDGE('',*,*,#336,.T.);
#448=ORIENTED_EDGE('',*,*,#307,.F.);
#449=ORIENTED_EDGE('',*,*,#339,.F.);
#450=ORIENTED_EDGE('',*,*,#340,.T.);
#451=ORIENTED_EDGE('',*,*,#341,.T.);
#452=ORIENTED_EDGE('',*,*,#303,.F.);
#453=ORIENTED_EDGE('',*,*,#342,.F.);
#454=ORIENTED_EDGE('',*,*,#343,.F.);
#455=ORIENTED_EDGE('',*,*,#340,.F.);
#456=ORIENTED_EDGE('',*,*,#344,.F.);
#457=ORIENTED_EDGE('',*,*,#343,.T.);
#458=ORIENTED_EDGE('',*,*,#345,.T.);
#459=ORIENTED_EDGE('',*,*,#304,.F.);
#460=ORIENTED_EDGE('',*,*,#341,.F.);
#461=ORIENTED_EDGE('',*,*,#346,.T.);
#462=ORIENTED_EDGE('',*,*,#347,.T.);
#463=ORIENTED_EDGE('',*,*,#327,.T.);
#464=ORIENTED_EDGE('',*,*,#347,.F.);
#465=ORIENTED_EDGE('',*,*,#348,.T.);
#466=ORIENTED_EDGE('',*,*,#349,.T.);
#467=ORIENTED_EDGE('',*,*,#326,.T.);
#468=ORIENTED_EDGE('',*,*,#349,.F.);
#469=ORIENTED_EDGE('',*,*,#330,.T.);
#470=ORIENTED_EDGE('',*,*,#350,.T.);
#471=ORIENTED_EDGE('',*,*,#325,.T.);
#472=ORIENTED_EDGE('',*,*,#350,.F.);
#473=ORIENTED_EDGE('',*,*,#333,.T.);
#474=ORIENTED_EDGE('',*,*,#351,.T.);
#475=ORIENTED_EDGE('',*,*,#324,.T.);
#476=ORIENTED_EDGE('',*,*,#351,.F.);
#477=ORIENTED_EDGE('',*,*,#344,.T.);
#478=ORIENTED_EDGE('',*,*,#339,.T.);
#479=ORIENTED_EDGE('',*,*,#306,.F.);
#480=ORIENTED_EDGE('',*,*,#352,.F.);
#481=ORIENTED_EDGE('',*,*,#342,.T.);
#482=ORIENTED_EDGE('',*,*,#352,.T.);
#483=ORIENTED_EDGE('',*,*,#305,.F.);
#484=ORIENTED_EDGE('',*,*,#345,.F.);
#485=ORIENTED_EDGE('',*,*,#319,.F.);
#486=ORIENTED_EDGE('',*,*,#323,.T.);
#487=ORIENTED_EDGE('',*,*,#321,.F.);
#488=ORIENTED_EDGE('',*,*,#298,.F.);
#489=ORIENTED_EDGE('',*,*,#309,.F.);
#490=ORIENTED_EDGE('',*,*,#353,.T.);
#491=ORIENTED_EDGE('',*,*,#354,.T.);
#492=ORIENTED_EDGE('',*,*,#353,.F.);
#493=ORIENTED_EDGE('',*,*,#348,.F.);
#494=ORIENTED_EDGE('',*,*,#354,.F.);
#495=ORIENTED_EDGE('',*,*,#310,.F.);
#496=ORIENTED_EDGE('',*,*,#355,.T.);
#497=ORIENTED_EDGE('',*,*,#356,.T.);
#498=ORIENTED_EDGE('',*,*,#355,.F.);
#499=ORIENTED_EDGE('',*,*,#346,.F.);
#500=ORIENTED_EDGE('',*,*,#356,.F.);
#501=CYLINDRICAL_SURFACE('',#557,5.);
#502=CYLINDRICAL_SURFACE('',#569,5.);
#503=CYLINDRICAL_SURFACE('',#572,5.);
#504=CYLINDRICAL_SURFACE('',#575,5.);
#505=CYLINDRICAL_SURFACE('',#582,1.7);
#506=CYLINDRICAL_SURFACE('',#586,1.7);
#507=CYLINDRICAL_SURFACE('',#596,3.);
#508=CYLINDRICAL_SURFACE('',#598,3.);
#509=CYLINDRICAL_SURFACE('',#600,3.);
#510=CYLINDRICAL_SURFACE('',#601,3.);
#511=CYLINDRICAL_SURFACE('',#605,1.7);
#512=CYLINDRICAL_SURFACE('',#608,1.7);
#513=ADVANCED_FACE('',(#45),#501,.T.);
#514=ADVANCED_FACE('',(#46),#27,.T.);
#515=ADVANCED_FACE('',(#47,#15,#16,#17,#18),#28,.T.);
#516=ADVANCED_FACE('',(#48),#502,.T.);
#517=ADVANCED_FACE('',(#49),#29,.T.);
#518=ADVANCED_FACE('',(#50),#503,.T.);
#519=ADVANCED_FACE('',(#51),#30,.T.);
#520=ADVANCED_FACE('',(#52),#504,.T.);
#521=ADVANCED_FACE('',(#53,#19,#20,#21,#22),#31,.F.);
#522=ADVANCED_FACE('',(#54),#505,.F.);
#523=ADVANCED_FACE('',(#55,#23),#32,.F.);
#524=ADVANCED_FACE('',(#56),#506,.F.);
#525=ADVANCED_FACE('',(#57,#24),#33,.F.);
#526=ADVANCED_FACE('',(#58),#34,.F.);
#527=ADVANCED_FACE('',(#59),#35,.F.);
#528=ADVANCED_FACE('',(#60),#36,.F.);
#529=ADVANCED_FACE('',(#61),#37,.T.);
#530=ADVANCED_FACE('',(#62),#38,.T.);
#531=ADVANCED_FACE('',(#63),#39,.T.);
#532=ADVANCED_FACE('',(#64),#507,.F.);
#533=ADVANCED_FACE('',(#65),#508,.F.);
#534=ADVANCED_FACE('',(#66),#509,.F.);
#535=ADVANCED_FACE('',(#67),#510,.F.);
#536=ADVANCED_FACE('',(#68),#40,.T.);
#537=ADVANCED_FACE('',(#69),#41,.T.);
#538=ADVANCED_FACE('',(#70),#42,.T.);
#539=ADVANCED_FACE('',(#71),#511,.F.);
#540=ADVANCED_FACE('',(#72,#25),#43,.F.);
#541=ADVANCED_FACE('',(#73),#512,.F.);
#542=ADVANCED_FACE('',(#74,#26),#44,.F.);
#543=CLOSED_SHELL('',(#513,#514,#515,#516,#517,#518,#519,#520,#521,#522,
#523,#524,#525,#526,#527,#528,#529,#530,#531,#532,#533,#534,#535,#536,#537,
#538,#539,#540,#541,#542));
#544=DERIVED_UNIT_ELEMENT(#546,1.);
#545=DERIVED_UNIT_ELEMENT(#925,-3.);
#546=(
MASS_UNIT()
NAMED_UNIT(*)
SI_UNIT(.KILO.,.GRAM.)
);
#547=DERIVED_UNIT((#544,#545));
#548=MEASURE_REPRESENTATION_ITEM('density measure',
POSITIVE_RATIO_MEASURE(7850.),#547);
#549=PROPERTY_DEFINITION_REPRESENTATION(#554,#551);
#550=PROPERTY_DEFINITION_REPRESENTATION(#555,#552);
#551=REPRESENTATION('material name',(#553),#922);
#552=REPRESENTATION('density',(#548),#922);
#553=DESCRIPTIVE_REPRESENTATION_ITEM('Steel','Steel');
#554=PROPERTY_DEFINITION('material property','material name',#932);
#555=PROPERTY_DEFINITION('material property','density of part',#932);
#556=AXIS2_PLACEMENT_3D('',#769,#611,#612);
#557=AXIS2_PLACEMENT_3D('',#770,#613,#614);
#558=AXIS2_PLACEMENT_3D('',#773,#615,#616);
#559=AXIS2_PLACEMENT_3D('',#777,#618,#619);
#560=AXIS2_PLACEMENT_3D('',#779,#621,#622);
#561=AXIS2_PLACEMENT_3D('',#793,#630,#631);
#562=AXIS2_PLACEMENT_3D('',#797,#633,#634);
#563=AXIS2_PLACEMENT_3D('',#801,#636,#637);
#564=AXIS2_PLACEMENT_3D('',#804,#639,#640);
#565=AXIS2_PLACEMENT_3D('',#819,#648,#649);
#566=AXIS2_PLACEMENT_3D('',#821,#650,#651);
#567=AXIS2_PLACEMENT_3D('',#823,#652,#653);
#568=AXIS2_PLACEMENT_3D('',#825,#654,#655);
#569=AXIS2_PLACEMENT_3D('',#826,#656,#657);
#570=AXIS2_PLACEMENT_3D('',#829,#659,#660);
#571=AXIS2_PLACEMENT_3D('',#830,#661,#662);
#572=AXIS2_PLACEMENT_3D('',#834,#665,#666);
#573=AXIS2_PLACEMENT_3D('',#838,#668,#669);
#574=AXIS2_PLACEMENT_3D('',#840,#671,#672);
#575=AXIS2_PLACEMENT_3D('',#842,#674,#675);
#576=AXIS2_PLACEMENT_3D('',#845,#677,#678);
#577=AXIS2_PLACEMENT_3D('',#846,#679,#680);
#578=AXIS2_PLACEMENT_3D('',#849,#682,#683);
#579=AXIS2_PLACEMENT_3D('',#851,#684,#685);
#580=AXIS2_PLACEMENT_3D('',#853,#686,#687);
#581=AXIS2_PLACEMENT_3D('',#855,#688,#689);
#582=AXIS2_PLACEMENT_3D('',#856,#690,#691);
#583=AXIS2_PLACEMENT_3D('',#859,#693,#694);
#584=AXIS2_PLACEMENT_3D('',#860,#695,#696);
#585=AXIS2_PLACEMENT_3D('',#862,#697,#698);
#586=AXIS2_PLACEMENT_3D('',#863,#699,#700);
#587=AXIS2_PLACEMENT_3D('',#866,#702,#703);
#588=AXIS2_PLACEMENT_3D('',#867,#704,#705);
#589=AXIS2_PLACEMENT_3D('',#869,#706,#707);
#590=AXIS2_PLACEMENT_3D('',#870,#708,#709);
#591=AXIS2_PLACEMENT_3D('',#874,#712,#713);
#592=AXIS2_PLACEMENT_3D('',#878,#716,#717);
#593=AXIS2_PLACEMENT_3D('',#880,#719,#720);
#594=AXIS2_PLACEMENT_3D('',#886,#724,#725);
#595=AXIS2_PLACEMENT_3D('',#892,#729,#730);
#596=AXIS2_PLACEMENT_3D('',#894,#732,#733);
#597=AXIS2_PLACEMENT_3D('',#896,#734,#735);
#598=AXIS2_PLACEMENT_3D('',#898,#737,#738);
#599=AXIS2_PLACEMENT_3D('',#900,#739,#740);
#600=AXIS2_PLACEMENT_3D('',#902,#742,#743);
#601=AXIS2_PLACEMENT_3D('',#904,#745,#746);
#602=AXIS2_PLACEMENT_3D('',#906,#748,#749);
#603=AXIS2_PLACEMENT_3D('',#908,#751,#752);
#604=AXIS2_PLACEMENT_3D('',#909,#753,#754);
#605=AXIS2_PLACEMENT_3D('',#910,#755,#756);
#606=AXIS2_PLACEMENT_3D('',#913,#758,#759);
#607=AXIS2_PLACEMENT_3D('',#914,#760,#761);
#608=AXIS2_PLACEMENT_3D('',#915,#762,#763);
#609=AXIS2_PLACEMENT_3D('',#918,#765,#766);
#610=AXIS2_PLACEMENT_3D('',#919,#767,#768);
#611=DIRECTION('axis',(0.,0.,1.));
#612=DIRECTION('refdir',(1.,0.,0.));
#613=DIRECTION('center_axis',(0.,0.,1.));
#614=DIRECTION('ref_axis',(-0.707106781186547,0.707106781186547,0.));
#615=DIRECTION('center_axis',(0.,0.,-1.));
#616=DIRECTION('ref_axis',(-0.707106781186547,0.707106781186547,0.));
#617=DIRECTION('',(0.,0.,-1.));
#618=DIRECTION('center_axis',(0.,0.059212827943,0.998245381159859));
#619=DIRECTION('ref_axis',(0.,0.998245381159859,-0.059212827943));
#620=DIRECTION('',(0.,0.,1.));
#621=DIRECTION('center_axis',(0.,1.,0.));
#622=DIRECTION('ref_axis',(-1.,0.,0.));
#623=DIRECTION('',(-1.,0.,0.));
#624=DIRECTION('',(0.,0.,-1.));
#625=DIRECTION('',(1.,0.,0.));
#626=DIRECTION('',(0.,0.,1.));
#627=DIRECTION('',(-1.,0.,0.));
#628=DIRECTION('',(0.,0.,1.));
#629=DIRECTION('',(1.,0.,0.));
#630=DIRECTION('center_axis',(0.,0.,1.));
#631=DIRECTION('ref_axis',(1.,0.,0.));
#632=DIRECTION('',(0.,-1.,0.));
#633=DIRECTION('center_axis',(0.,0.,-1.));
#634=DIRECTION('ref_axis',(-0.707106781186547,-0.707106781186547,0.));
#635=DIRECTION('',(1.,0.,0.));
#636=DIRECTION('center_axis',(0.,0.,-1.));
#637=DIRECTION('ref_axis',(0.707106781186547,-0.707106781186547,0.));
#638=DIRECTION('',(0.,1.,0.));
#639=DIRECTION('center_axis',(0.,0.,-1.));
#640=DIRECTION('ref_axis',(0.707106781186547,0.707106781186547,0.));
#641=DIRECTION('',(0.,-1.,0.));
#642=DIRECTION('',(1.,0.,0.));
#643=DIRECTION('',(0.,-1.,0.));
#644=DIRECTION('',(-1.,0.,0.));
#645=DIRECTION('',(0.,1.,0.));
#646=DIRECTION('',(1.,0.,0.));
#647=DIRECTION('',(0.,1.,0.));
#648=DIRECTION('center_axis',(0.,0.,-1.));
#649=DIRECTION('ref_axis',(1.,0.,0.));
#650=DIRECTION('center_axis',(0.,0.,-1.));
#651=DIRECTION('ref_axis',(1.,0.,0.));
#652=DIRECTION('center_axis',(0.,0.,-1.));
#653=DIRECTION('ref_axis',(1.,0.,0.));
#654=DIRECTION('center_axis',(0.,0.,-1.));
#655=DIRECTION('ref_axis',(1.,0.,0.));
#656=DIRECTION('center_axis',(0.,0.,1.));
#657=DIRECTION('ref_axis',(0.707106781186547,0.707106781186547,0.));
#658=DIRECTION('',(0.,0.,-1.));
#659=DIRECTION('center_axis',(0.,0.059212827943,0.998245381159859));
#660=DIRECTION('ref_axis',(0.,0.998245381159859,-0.059212827943));
#661=DIRECTION('center_axis',(1.,0.,0.));
#662=DIRECTION('ref_axis',(0.,1.,0.));
#663=DIRECTION('',(0.,0.,1.));
#664=DIRECTION('',(0.,0.998245381159859,-0.059212827943));
#665=DIRECTION('center_axis',(0.,0.,1.));
#666=DIRECTION('ref_axis',(-0.707106781186547,-0.707106781186547,0.));
#667=DIRECTION('',(0.,0.,-1.));
#668=DIRECTION('center_axis',(0.,0.059212827943,0.998245381159859));
#669=DIRECTION('ref_axis',(0.,-0.998245381159859,0.059212827943));
#670=DIRECTION('',(0.,0.,1.));
#671=DIRECTION('center_axis',(-1.,0.,0.));
#672=DIRECTION('ref_axis',(0.,-1.,0.));
#673=DIRECTION('',(0.,-0.998245381159859,0.059212827943));
#674=DIRECTION('center_axis',(0.,0.,1.));
#675=DIRECTION('ref_axis',(0.707106781186547,-0.707106781186547,0.));
#676=DIRECTION('',(0.,0.,-1.));
#677=DIRECTION('center_axis',(0.,0.059212827943,0.998245381159859));
#678=DIRECTION('ref_axis',(0.,-0.998245381159859,0.059212827943));
#679=DIRECTION('center_axis',(0.,0.059212827943,0.998245381159859));
#680=DIRECTION('ref_axis',(0.,0.998245381159859,-0.059212827943));
#681=DIRECTION('',(1.,0.,0.));
#682=DIRECTION('center_axis',(0.,-0.059212827943,-0.998245381159859));
#683=DIRECTION('ref_axis',(0.,0.998245381159859,-0.059212827943));
#684=DIRECTION('center_axis',(0.,-0.059212827943,-0.998245381159859));
#685=DIRECTION('ref_axis',(0.,0.998245381159859,-0.059212827943));
#686=DIRECTION('center_axis',(0.,-0.059212827943,-0.998245381159859));
#687=DIRECTION('ref_axis',(0.,0.998245381159859,-0.059212827943));
#688=DIRECTION('center_axis',(0.,-0.059212827943,-0.998245381159859));
#689=DIRECTION('ref_axis',(0.,0.998245381159859,-0.059212827943));
#690=DIRECTION('center_axis',(0.,0.,1.));
#691=DIRECTION('ref_axis',(1.,0.,0.));
#692=DIRECTION('',(0.,0.,-1.));
#693=DIRECTION('center_axis',(0.,0.,-1.));
#694=DIRECTION('ref_axis',(1.,0.,0.));
#695=DIRECTION('center_axis',(0.,0.,1.));
#696=DIRECTION('ref_axis',(1.,0.,0.));
#697=DIRECTION('center_axis',(0.,0.,1.));
#698=DIRECTION('ref_axis',(1.,0.,0.));
#699=DIRECTION('center_axis',(0.,0.,1.));
#700=DIRECTION('ref_axis',(1.,0.,0.));
#701=DIRECTION('',(0.,0.,-1.));
#702=DIRECTION('center_axis',(0.,0.,-1.));
#703=DIRECTION('ref_axis',(1.,0.,0.));
#704=DIRECTION('center_axis',(0.,0.,1.));
#705=DIRECTION('ref_axis',(1.,0.,0.));
#706=DIRECTION('center_axis',(0.,0.,1.));
#707=DIRECTION('ref_axis',(1.,0.,0.));
#708=DIRECTION('center_axis',(1.,0.,0.));
#709=DIRECTION('ref_axis',(0.,-1.,0.));
#710=DIRECTION('',(0.,-1.,0.));
#711=DIRECTION('',(0.,0.,-1.));
#712=DIRECTION('center_axis',(-1.,0.,0.));
#713=DIRECTION('ref_axis',(0.,1.,0.));
#714=DIRECTION('',(0.,0.,1.));
#715=DIRECTION('',(0.,1.,0.));
#716=DIRECTION('center_axis',(0.,0.,-1.));
#717=DIRECTION('ref_axis',(-1.,0.,0.));
#718=DIRECTION('',(-1.,0.,0.));
#719=DIRECTION('center_axis',(0.,-1.,0.));
#720=DIRECTION('ref_axis',(1.,0.,0.));
#721=DIRECTION('',(0.,0.,1.));
#722=DIRECTION('',(1.,0.,0.));
#723=DIRECTION('',(0.,0.,1.));
#724=DIRECTION('center_axis',(0.,0.,1.));
#725=DIRECTION('ref_axis',(1.,0.,0.));
#726=DIRECTION('',(-1.,0.,0.));
#727=DIRECTION('',(0.,-1.,0.));
#728=DIRECTION('',(0.,1.,0.));
#729=DIRECTION('center_axis',(-1.,0.,0.));
#730=DIRECTION('ref_axis',(0.,-1.,0.));
#731=DIRECTION('',(0.,0.,1.));
#732=DIRECTION('center_axis',(0.,0.,1.));
#733=DIRECTION('ref_axis',(1.,0.,0.));
#734=DIRECTION('center_axis',(0.,0.,1.));
#735=DIRECTION('ref_axis',(1.,0.,0.));
#736=DIRECTION('',(0.,0.,-1.));
#737=DIRECTION('center_axis',(0.,0.,1.));
#738=DIRECTION('ref_axis',(1.,0.,0.));
#739=DIRECTION('center_axis',(0.,0.,1.));
#740=DIRECTION('ref_axis',(1.,0.,0.));
#741=DIRECTION('',(0.,0.,-1.));
#742=DIRECTION('center_axis',(0.,0.,1.));
#743=DIRECTION('ref_axis',(1.,0.,0.));
#744=DIRECTION('',(0.,0.,-1.));
#745=DIRECTION('center_axis',(0.,0.,1.));
#746=DIRECTION('ref_axis',(1.,0.,0.));
#747=DIRECTION('',(0.,0.,-1.));
#748=DIRECTION('center_axis',(1.,0.,0.));
#749=DIRECTION('ref_axis',(0.,1.,0.));
#750=DIRECTION('',(0.,0.,1.));
#751=DIRECTION('center_axis',(0.,1.,0.));
#752=DIRECTION('ref_axis',(-1.,0.,0.));
#753=DIRECTION('center_axis',(0.,-1.,0.));
#754=DIRECTION('ref_axis',(1.,0.,0.));
#755=DIRECTION('center_axis',(0.,0.,1.));
#756=DIRECTION('ref_axis',(1.,0.,0.));
#757=DIRECTION('',(0.,0.,-1.));
#758=DIRECTION('center_axis',(0.,0.,-1.));
#759=DIRECTION('ref_axis',(1.,0.,0.));
#760=DIRECTION('center_axis',(0.,0.,1.));
#761=DIRECTION('ref_axis',(1.,0.,0.));
#762=DIRECTION('center_axis',(0.,0.,1.));
#763=DIRECTION('ref_axis',(1.,0.,0.));
#764=DIRECTION('',(0.,0.,-1.));
#765=DIRECTION('center_axis',(0.,0.,-1.));
#766=DIRECTION('ref_axis',(1.,0.,0.));
#767=DIRECTION('center_axis',(0.,0.,1.));
#768=DIRECTION('ref_axis',(1.,0.,0.));
#769=CARTESIAN_POINT('',(0.,0.,0.));
#770=CARTESIAN_POINT('Origin',(-27.3556602522105,41.9023788449132,0.));
#771=CARTESIAN_POINT('',(-32.3556602522105,41.9023788449132,18.));
#772=CARTESIAN_POINT('',(-27.3556602522105,46.9023788449132,18.));
#773=CARTESIAN_POINT('Origin',(-27.3556602522105,41.9023788449132,18.));
#774=CARTESIAN_POINT('',(-27.3556602522105,46.9023788449132,0.));
#775=CARTESIAN_POINT('',(-27.3556602522105,46.9023788449132,0.));
#776=CARTESIAN_POINT('',(-32.3556602522105,41.9023788449132,0.29658453252346));
#777=CARTESIAN_POINT('Origin',(-27.3556602522105,41.9023788449132,0.29658453252346));
#778=CARTESIAN_POINT('',(-32.3556602522105,41.9023788449132,0.));
#779=CARTESIAN_POINT('Origin',(59.0813397477895,46.9023788449132,0.));
#780=CARTESIAN_POINT('',(25.2123397477895,46.9023788449132,18.));
#781=CARTESIAN_POINT('',(-32.3556602522105,46.9023788449132,18.));
#782=CARTESIAN_POINT('',(25.2123397477895,46.9023788449132,10.5));
#783=CARTESIAN_POINT('',(25.2123397477895,46.9023788449132,9.));
#784=CARTESIAN_POINT('',(43.7123397477895,46.9023788449132,10.5));
#785=CARTESIAN_POINT('',(46.7718397477895,46.9023788449132,10.5));
#786=CARTESIAN_POINT('',(43.7123397477895,46.9023788449132,18.));
#787=CARTESIAN_POINT('',(43.7123397477895,46.9023788449132,9.));
#788=CARTESIAN_POINT('',(54.0813397477895,46.9023788449132,18.));
#789=CARTESIAN_POINT('',(-32.3556602522105,46.9023788449132,18.));
#790=CARTESIAN_POINT('',(54.0813397477895,46.9023788449132,0.));
#791=CARTESIAN_POINT('',(54.0813397477895,46.9023788449132,0.));
#792=CARTESIAN_POINT('',(-32.3556602522105,46.9023788449132,0.));
#793=CARTESIAN_POINT('Origin',(54.0813397477895,41.9023788449132,18.));
#794=CARTESIAN_POINT('',(-32.3556602522105,-32.3906211550868,18.));
#795=CARTESIAN_POINT('',(-32.3556602522105,-37.3906211550868,18.));
#796=CARTESIAN_POINT('',(-27.3556602522105,-37.3906211550868,18.));
#797=CARTESIAN_POINT('Origin',(-27.3556602522105,-32.3906211550868,18.));
#798=CARTESIAN_POINT('',(54.0813397477895,-37.3906211550868,18.));
#799=CARTESIAN_POINT('',(59.0813397477895,-37.3906211550868,18.));
#800=CARTESIAN_POINT('',(59.0813397477895,-32.3906211550868,18.));
#801=CARTESIAN_POINT('Origin',(54.0813397477895,-32.3906211550868,18.));
#802=CARTESIAN_POINT('',(59.0813397477895,41.9023788449132,18.));
#803=CARTESIAN_POINT('',(59.0813397477895,46.9023788449132,18.));
#804=CARTESIAN_POINT('Origin',(54.0813397477895,41.9023788449132,18.));
#805=CARTESIAN_POINT('',(43.7123397477895,37.4023788449132,18.));
#806=CARTESIAN_POINT('',(43.7123397477895,44.4023788449132,18.));
#807=CARTESIAN_POINT('',(48.5813397477895,37.4023788449132,18.));
#808=CARTESIAN_POINT('',(-22.8556602522105,37.4023788449132,18.));
#809=CARTESIAN_POINT('',(48.5813397477895,-26.8906211550868,18.));
#810=CARTESIAN_POINT('',(48.5813397477895,37.4023788449132,18.));
#811=CARTESIAN_POINT('',(-22.8556602522105,-26.8906211550868,18.));
#812=CARTESIAN_POINT('',(48.5813397477895,-26.8906211550868,18.));
#813=CARTESIAN_POINT('',(-22.8556602522105,37.4023788449132,18.));
#814=CARTESIAN_POINT('',(-22.8556602522105,-26.8906211550868,18.));
#815=CARTESIAN_POINT('',(25.2123397477895,37.4023788449132,18.));
#816=CARTESIAN_POINT('',(-22.8556602522105,37.4023788449132,18.));
#817=CARTESIAN_POINT('',(25.2123397477895,39.6523788449132,18.));
#818=CARTESIAN_POINT('',(-29.0556602522105,41.9023788449132,18.));
#819=CARTESIAN_POINT('Origin',(-27.3556602522105,41.9023788449132,18.));
#820=CARTESIAN_POINT('',(52.3813397477895,41.9023788449132,18.));
#821=CARTESIAN_POINT('Origin',(54.0813397477895,41.9023788449132,18.));
#822=CARTESIAN_POINT('',(52.3813397477895,-32.3906211550868,18.));
#823=CARTESIAN_POINT('Origin',(54.0813397477895,-32.3906211550868,18.));
#824=CARTESIAN_POINT('',(-29.0556602522105,-32.3906211550868,18.));
#825=CARTESIAN_POINT('Origin',(-27.3556602522105,-32.3906211550868,18.));
#826=CARTESIAN_POINT('Origin',(54.0813397477895,41.9023788449132,0.));
#827=CARTESIAN_POINT('',(59.0813397477895,41.9023788449132,0.29658453252346));
#828=CARTESIAN_POINT('',(59.0813397477895,41.9023788449132,0.));
#829=CARTESIAN_POINT('Origin',(54.0813397477895,41.9023788449132,0.29658453252346));
#830=CARTESIAN_POINT('Origin',(59.0813397477895,-37.3906211550868,0.));
#831=CARTESIAN_POINT('',(59.0813397477895,-32.3906211550868,4.70341546747654));
#832=CARTESIAN_POINT('',(59.0813397477895,-32.3906211550868,0.));
#833=CARTESIAN_POINT('',(59.0813397477895,-37.242848825088,4.99123460251748));
#834=CARTESIAN_POINT('Origin',(-27.3556602522105,-32.3906211550868,0.));
#835=CARTESIAN_POINT('',(-32.3556602522105,-32.3906211550868,4.70341546747654));
#836=CARTESIAN_POINT('',(-32.3556602522105,-32.3906211550868,0.));
#837=CARTESIAN_POINT('',(-27.3556602522105,-37.3906211550868,5.));
#838=CARTESIAN_POINT('Origin',(-27.3556602522105,-32.3906211550868,4.70341546747654));
#839=CARTESIAN_POINT('',(-27.3556602522105,-37.3906211550868,0.));
#840=CARTESIAN_POINT('Origin',(-32.3556602522105,46.9023788449132,0.));
#841=CARTESIAN_POINT('',(-32.3556602522105,4.75587884491321,2.5));
#842=CARTESIAN_POINT('Origin',(54.0813397477895,-32.3906211550868,0.));
#843=CARTESIAN_POINT('',(54.0813397477895,-37.3906211550868,5.));
#844=CARTESIAN_POINT('',(54.0813397477895,-37.3906211550868,0.));
#845=CARTESIAN_POINT('Origin',(54.0813397477895,-32.3906211550868,4.70341546747654));
#846=CARTESIAN_POINT('Origin',(59.0813397477895,-37.3906211550868,5.));
#847=CARTESIAN_POINT('',(13.3628397477895,-37.3906211550868,5.));
#848=CARTESIAN_POINT('',(51.0813397477895,-32.3906211550868,4.70341546747654));
#849=CARTESIAN_POINT('Origin',(54.0813397477895,-32.3906211550868,4.70341546747654));
#850=CARTESIAN_POINT('',(-30.3556602522105,-32.3906211550868,4.70341546747654));
#851=CARTESIAN_POINT('Origin',(-27.3556602522105,-32.3906211550868,4.70341546747654));
#852=CARTESIAN_POINT('',(-30.3556602522105,41.9023788449132,0.29658453252346));
#853=CARTESIAN_POINT('Origin',(-27.3556602522105,41.9023788449132,0.29658453252346));
#854=CARTESIAN_POINT('',(51.0813397477895,41.9023788449132,0.29658453252346));
#855=CARTESIAN_POINT('Origin',(54.0813397477895,41.9023788449132,0.29658453252346));
#856=CARTESIAN_POINT('Origin',(-27.3556602522105,-32.3906211550868,8.1));
#857=CARTESIAN_POINT('',(-29.0556602522105,-32.3906211550868,8.1));
#858=CARTESIAN_POINT('',(-29.0556602522105,-32.3906211550868,8.1));
#859=CARTESIAN_POINT('Origin',(-27.3556602522105,-32.3906211550868,8.1));
#860=CARTESIAN_POINT('Origin',(-27.3556602522105,-32.3906211550868,8.1));
#861=CARTESIAN_POINT('',(-30.3556602522105,-32.3906211550868,8.1));
#862=CARTESIAN_POINT('Origin',(-27.3556602522105,-32.3906211550868,8.1));
#863=CARTESIAN_POINT('Origin',(54.0813397477895,-32.3906211550868,8.1));
#864=CARTESIAN_POINT('',(52.3813397477895,-32.3906211550868,8.1));
#865=CARTESIAN_POINT('',(52.3813397477895,-32.3906211550868,8.1));
#866=CARTESIAN_POINT('Origin',(54.0813397477895,-32.3906211550868,8.1));
#867=CARTESIAN_POINT('Origin',(54.0813397477895,-32.3906211550868,8.1));
#868=CARTESIAN_POINT('',(51.0813397477895,-32.3906211550868,8.1));
#869=CARTESIAN_POINT('Origin',(54.0813397477895,-32.3906211550868,8.1));
#870=CARTESIAN_POINT('Origin',(43.7123397477895,46.9023788449132,18.));
#871=CARTESIAN_POINT('',(43.7123397477895,37.4023788449132,10.5));
#872=CARTESIAN_POINT('',(43.7123397477895,46.9023788449132,10.5));
#873=CARTESIAN_POINT('',(43.7123397477895,37.4023788449132,9.));
#874=CARTESIAN_POINT('Origin',(25.2123397477895,37.4023788449132,18.));
#875=CARTESIAN_POINT('',(25.2123397477895,37.4023788449132,10.5));
#876=CARTESIAN_POINT('',(25.2123397477895,37.4023788449132,9.));
#877=CARTESIAN_POINT('',(25.2123397477895,37.4023788449132,10.5));
#878=CARTESIAN_POINT('Origin',(34.4623397477895,42.1523788449132,10.5));
#879=CARTESIAN_POINT('',(5.80333974778949,37.4023788449132,10.5));
#880=CARTESIAN_POINT('Origin',(-22.8556602522105,37.4023788449132,0.));
#881=CARTESIAN_POINT('',(-22.8556602522105,37.4023788449132,8.));
#882=CARTESIAN_POINT('',(-22.8556602522105,37.4023788449132,0.));
#883=CARTESIAN_POINT('',(48.5813397477895,37.4023788449132,8.));
#884=CARTESIAN_POINT('',(-4.99641025221051,37.4023788449132,8.));
#885=CARTESIAN_POINT('',(48.5813397477895,37.4023788449132,0.));
#886=CARTESIAN_POINT('Origin',(12.8628397477895,5.25587884491321,8.));
#887=CARTESIAN_POINT('',(48.5813397477895,-26.8906211550868,8.));
#888=CARTESIAN_POINT('',(-22.8556602522105,-26.8906211550868,8.));
#889=CARTESIAN_POINT('',(30.7220897477895,-26.8906211550868,8.));
#890=CARTESIAN_POINT('',(48.5813397477895,21.3291288449132,8.));
#891=CARTESIAN_POINT('',(-22.8556602522105,-10.8173711550868,8.));
#892=CARTESIAN_POINT('Origin',(48.5813397477895,37.4023788449132,0.));
#893=CARTESIAN_POINT('',(48.5813397477895,-26.8906211550868,0.));
#894=CARTESIAN_POINT('Origin',(54.0813397477895,41.9023788449132,0.));
#895=CARTESIAN_POINT('',(51.0813397477895,41.9023788449132,8.1));
#896=CARTESIAN_POINT('Origin',(54.0813397477895,41.9023788449132,8.1));
#897=CARTESIAN_POINT('',(51.0813397477895,41.9023788449132,0.));
#898=CARTESIAN_POINT('Origin',(-27.3556602522105,41.9023788449132,0.));
#899=CARTESIAN_POINT('',(-30.3556602522105,41.9023788449132,8.1));
#900=CARTESIAN_POINT('Origin',(-27.3556602522105,41.9023788449132,8.1));
#901=CARTESIAN_POINT('',(-30.3556602522105,41.9023788449132,0.));
#902=CARTESIAN_POINT('Origin',(-27.3556602522105,-32.3906211550868,0.));
#903=CARTESIAN_POINT('',(-30.3556602522105,-32.3906211550868,0.));
#904=CARTESIAN_POINT('Origin',(54.0813397477895,-32.3906211550868,0.));
#905=CARTESIAN_POINT('',(51.0813397477895,-32.3906211550868,0.));
#906=CARTESIAN_POINT('Origin',(-22.8556602522105,-26.8906211550868,0.));
#907=CARTESIAN_POINT('',(-22.8556602522105,-26.8906211550868,0.));
#908=CARTESIAN_POINT('Origin',(48.5813397477895,-26.8906211550868,0.));
#909=CARTESIAN_POINT('Origin',(-32.3556602522105,-37.3906211550868,0.));
#910=CARTESIAN_POINT('Origin',(-27.3556602522105,41.9023788449132,8.1));
#911=CARTESIAN_POINT('',(-29.0556602522105,41.9023788449132,8.1));
#912=CARTESIAN_POINT('',(-29.0556602522105,41.9023788449132,8.1));
#913=CARTESIAN_POINT('Origin',(-27.3556602522105,41.9023788449132,8.1));
#914=CARTESIAN_POINT('Origin',(-27.3556602522105,41.9023788449132,8.1));
#915=CARTESIAN_POINT('Origin',(54.0813397477895,41.9023788449132,8.1));
#916=CARTESIAN_POINT('',(52.3813397477895,41.9023788449132,8.1));
#917=CARTESIAN_POINT('',(52.3813397477895,41.9023788449132,8.1));
#918=CARTESIAN_POINT('Origin',(54.0813397477895,41.9023788449132,8.1));
#919=CARTESIAN_POINT('Origin',(54.0813397477895,41.9023788449132,8.1));
#920=UNCERTAINTY_MEASURE_WITH_UNIT(LENGTH_MEASURE(0.01),#924,
'DISTANCE_ACCURACY_VALUE',
'Maximum model space distance between geometric entities at asserted c
onnectivities');
#921=UNCERTAINTY_MEASURE_WITH_UNIT(LENGTH_MEASURE(0.01),#924,
'DISTANCE_ACCURACY_VALUE',
'Maximum model space distance between geometric entities at asserted c
onnectivities');
#922=(
GEOMETRIC_REPRESENTATION_CONTEXT(3)
GLOBAL_UNCERTAINTY_ASSIGNED_CONTEXT((#920))
GLOBAL_UNIT_ASSIGNED_CONTEXT((#924,#926,#927))
REPRESENTATION_CONTEXT('','3D')
);
#923=(
GEOMETRIC_REPRESENTATION_CONTEXT(3)
GLOBAL_UNCERTAINTY_ASSIGNED_CONTEXT((#921))
GLOBAL_UNIT_ASSIGNED_CONTEXT((#924,#926,#927))
REPRESENTATION_CONTEXT('','3D')
);
#924=(
LENGTH_UNIT()
NAMED_UNIT(*)
SI_UNIT(.MILLI.,.METRE.)
);
#925=(
LENGTH_UNIT()
NAMED_UNIT(*)
SI_UNIT($,.METRE.)
);
#926=(
NAMED_UNIT(*)
PLANE_ANGLE_UNIT()
SI_UNIT($,.RADIAN.)
);
#927=(
NAMED_UNIT(*)
SI_UNIT($,.STERADIAN.)
SOLID_ANGLE_UNIT()
);
#928=SHAPE_DEFINITION_REPRESENTATION(#929,#930);
#929=PRODUCT_DEFINITION_SHAPE('',$,#932);
#930=SHAPE_REPRESENTATION('',(#556),#922);
#931=PRODUCT_DEFINITION_CONTEXT('part definition',#936,'design');
#932=PRODUCT_DEFINITION('2026-01-07-22-08-52-707','Bottom V1',#933,#931);
#933=PRODUCT_DEFINITION_FORMATION('',$,#938);
#934=PRODUCT_RELATED_PRODUCT_CATEGORY('Bottom V1','Bottom V1',(#938));
#935=APPLICATION_PROTOCOL_DEFINITION('international standard',
'automotive_design',2009,#936);
#936=APPLICATION_CONTEXT(
'Core Data for Automotive Mechanical Design Process');
#937=PRODUCT_CONTEXT('part definition',#936,'mechanical');
#938=PRODUCT('2026-01-07-22-08-52-707','Bottom V1',$,(#937));
#939=PRESENTATION_STYLE_ASSIGNMENT((#940));
#940=SURFACE_STYLE_USAGE(.BOTH.,#941);
#941=SURFACE_SIDE_STYLE('',(#942));
#942=SURFACE_STYLE_FILL_AREA(#943);
#943=FILL_AREA_STYLE('Steel - Satin',(#944));
#944=FILL_AREA_STYLE_COLOUR('Steel - Satin',#945);
#945=COLOUR_RGB('Steel - Satin',0.627450980392157,0.627450980392157,0.627450980392157);
ENDSEC;
END-ISO-10303-21;
